<?xml version="1.0" encoding="utf-8"?>
<!-- Generator: Adobe Illustrator 16.0.0, SVG Export Plug-In . SVG Version: 6.00 Build 0)  -->
<!DOCTYPE svg PUBLIC "-//W3C//DTD SVG 1.1//EN" "http://www.w3.org/Graphics/SVG/1.1/DTD/svg11.dtd">
<svg version="1.1" id="Layer_1" xmlns="http://www.w3.org/2000/svg" xmlns:xlink="http://www.w3.org/1999/xlink" x="0px" y="0px"
	 width="170px" height="170px" viewBox="0 0 170 170" enable-background="new 0 0 170 170" xml:space="preserve">
<g>
	<path fill="#414042" d="M85,3.5c45.215,0,82,36.785,82,82s-36.785,82-82,82s-82-36.785-82-82S39.785,3.5,85,3.5 M85,0.5
		c-46.944,0-85,38.056-85,85c0,46.945,38.056,85,85,85c46.945,0,85-38.055,85-85C170,38.556,131.945,0.5,85,0.5L85,0.5z"/>
</g>
<g>
	<path fill="#414042" d="M58.555,57.793v40.543c0,4.885,3.619,8.844,8.081,8.844h36.729c4.462,0,8.081-3.959,8.081-8.844V57.793
		c0-4.886-3.619-8.846-8.081-8.846H66.636C62.174,48.947,58.555,52.907,58.555,57.793z M93.91,53.939
		c0,1.037-0.517,1.877-1.154,1.877H77.243c-0.637,0-1.153-0.84-1.153-1.877v-1.142c0-1.036,0.517-1.875,1.153-1.875h15.513
		c0.638,0,1.154,0.839,1.154,1.875V53.939z M106.595,76.558c0,1.595-1.436,2.887-3.205,2.887H66.611
		c-1.771,0-3.205-1.292-3.205-2.887V60.996c0-1.595,1.434-2.886,3.205-2.886h36.778c1.77,0,3.205,1.292,3.205,2.886V76.558z
		 M71.194,84.402c0-0.451,0.366-0.816,0.815-0.816h25.981c0.449,0,0.814,0.365,0.814,0.816c0,0.451-0.365,0.816-0.814,0.816H72.01
		C71.561,85.219,71.194,84.853,71.194,84.402z M72.01,88.104h25.981c0.449,0,0.814,0.364,0.814,0.815s-0.365,0.816-0.814,0.816
		H72.01c-0.449,0-0.815-0.365-0.815-0.816S71.561,88.104,72.01,88.104z M97.3,98.646c0-2.634,2.135-4.77,4.769-4.77
		c2.633,0,4.769,2.136,4.769,4.77s-2.136,4.77-4.769,4.77C99.435,103.416,97.3,101.28,97.3,98.646z M63.163,98.646
		c0-2.634,2.135-4.77,4.769-4.77s4.77,2.136,4.77,4.77s-2.136,4.77-4.77,4.77S63.163,101.28,63.163,98.646z"/>
	<g>
		<polygon fill="#414042" points="100.163,119.844 93.605,105.59 102.34,105.59 109.738,119.844 		"/>
		<polygon fill="#414042" points="69.837,119.844 76.395,105.59 67.66,105.59 60.261,119.844 		"/>
	</g>
	<rect x="70.566" y="113.771" fill="#414042" width="28.867" height="2.888"/>
	<rect x="70.566" y="109.203" fill="#414042" width="28.867" height="2.886"/>
</g>
</svg>
