<?xml version="1.0" encoding="utf-8"?>
<!-- Generator: Adobe Illustrator 16.0.0, SVG Export Plug-In . SVG Version: 6.00 Build 0)  -->
<!DOCTYPE svg PUBLIC "-//W3C//DTD SVG 1.1//EN" "http://www.w3.org/Graphics/SVG/1.1/DTD/svg11.dtd">
<svg version="1.1" id="Layer_1" xmlns="http://www.w3.org/2000/svg" xmlns:xlink="http://www.w3.org/1999/xlink" x="0px" y="0px"
	 width="170px" height="170px" viewBox="0 0 170 170" enable-background="new 0 0 170 170" xml:space="preserve">
<path fill="#414042" d="M60.394,65.582c0.302-1.942,1.395-5.846,5.375-8.652c3.513-2.475,12.562-2.528,19.177-2.529
	c0.018,0,0.034,0,0.052,0c0.017,0,0.036,0,0.052,0c6.618,0.001,15.665,0.054,19.177,2.529c3.983,2.809,5.075,6.713,5.378,8.655
	c-4.008,0.324-7.609,2.948-9.359,6.752H69.768C68.023,68.373,64.585,65.874,60.394,65.582z M76.599,45.43h0.054l2.447,5.959
	c1.08-0.03,2.187-0.049,3.307-0.058l-2.424-5.901h10.072l-2.436,5.902c1.12,0.01,2.226,0.027,3.307,0.06l2.461-5.962h0.043
	c1.717,0,3.115,1.398,3.115,3.115h3.078c0-3.416-2.778-6.194-6.193-6.194H76.599c-3.416,0-6.196,2.778-6.196,6.194h3.082
	C73.484,46.828,74.88,45.43,76.599,45.43z M94.979,122.385l1.584,5.264h4.182l-1.715-5.708
	C97.725,122.139,96.369,122.282,94.979,122.385z M69.254,127.648h4.181l1.583-5.264c-1.391-0.103-2.745-0.246-4.048-0.444
	L69.254,127.648z M108.328,68.962c0.934,8.583,1.353,19.338,1.146,28.543l-5.42,1.846l-0.285,0.543
	c-3.285,6.227-6.123,11.604-18.755,11.623c-12.659-0.015-15.5-5.395-18.787-11.627l-0.287-0.539l-5.418-1.848
	c-0.206-9.217,0.214-19.994,1.153-28.584c2.724,0.712,4.807,2.793,5.734,5.905C71.721,89.31,74.27,96.273,85,96.273
	c10.729,0,13.277-6.964,17.59-21.449C103.453,71.923,105.678,69.744,108.328,68.962z M76.797,99.885
	c-0.891-2.428-2.843-2.769-4.404-2.916c-0.91-0.086-3.165-0.162-3.937-0.188l0.798,1.514c2.061,3.907,3.61,6.814,7.226,8.409
	l0.484-0.264C78.906,104.867,77.688,102.315,76.797,99.885z M101.537,96.789c-0.92,0.031-2.879,0.1-3.711,0.18
	c-1.559,0.147-3.514,0.488-4.406,2.916c-0.891,2.431-2.109,4.982-0.166,6.555l0.393,0.214c3.525-1.608,5.06-4.495,7.098-8.356
	L101.537,96.789z M85.015,114.598c-14.115-0.016-17.868-6.385-21.225-12.726l-3.163-1.077c0.247,5.994,0.792,11.052,1.67,13.971
	c2.891,5.104,17.47,4.789,22.701,4.788c5.23,0.001,19.812,0.315,22.701-4.788c0.879-2.919,1.425-7.975,1.671-13.971l-3.163,1.077
	C102.854,108.211,99.104,114.576,85.015,114.598z"/>
<g>
	<path fill="#414042" d="M85,3c45.215,0,82,36.785,82,82s-36.785,82-82,82S3,130.215,3,85S39.785,3,85,3 M85,0
		C38.056,0,0,38.056,0,85c0,46.945,38.056,85,85,85c46.945,0,85-38.055,85-85C170,38.056,131.945,0,85,0L85,0z"/>
</g>
</svg>
