<?xml version="1.0" encoding="utf-8"?>
<!-- Generator: Adobe Illustrator 16.0.0, SVG Export Plug-In . SVG Version: 6.00 Build 0)  -->
<!DOCTYPE svg PUBLIC "-//W3C//DTD SVG 1.1//EN" "http://www.w3.org/Graphics/SVG/1.1/DTD/svg11.dtd">
<svg version="1.1" id="Layer_1" xmlns="http://www.w3.org/2000/svg" xmlns:xlink="http://www.w3.org/1999/xlink" x="0px" y="0px"
	 width="170px" height="170px" viewBox="0 0 170 170" enable-background="new 0 0 170 170" xml:space="preserve">
<g>
	<path fill="#414042" d="M85,3.5c45.215,0,82,36.785,82,82s-36.785,82-82,82s-82-36.785-82-82S39.785,3.5,85,3.5 M85,0.5
		c-46.944,0-85,38.056-85,85c0,46.945,38.056,85,85,85c46.945,0,85-38.055,85-85C170,38.556,131.945,0.5,85,0.5L85,0.5z"/>
</g>
<g>
	<path fill="#414042" d="M40.607,79.504l13.598,44.814l19.535-11.49l22.598,1.148l15.034-13.789l24.417-1.725l-18.385-37.919
		l-20.969-0.862L82.357,71.46l0,0l-3.944-0.577c-0.495,0.733-1.073,1.625-1.698,2.609l5.041,0.734l4.314,13.136
		c-0.367,0.507-0.735,1.013-1.102,1.519c-0.259,0.36-0.52,0.721-0.781,1.08l1.445,1.433c0.322-0.444,0.645-0.89,0.967-1.335
		c0.082-0.112,0.164-0.226,0.246-0.34l6.984,21.258l-20.81-1.061l-17.126,10.075l-5.465-18.012c0.578,0.194,1.184,0.392,1.82,0.583
		l0.65-1.909c-1.182-0.354-2.266-0.714-3.197-1.068l-5.711-18.821l11.639-7.351c-0.571-0.899-1.104-1.72-1.566-2.408L40.607,79.504z
		 M88.932,86.866c0.455-0.612,0.912-1.221,1.374-1.817l-1.313-1.587c-0.277,0.354-0.552,0.714-0.826,1.075l-3.615-11.004
		l12.914-10.796l17.996,0.426l8.99,18.451c-0.41-0.288-0.818-0.57-1.222-0.844l-1.011,1.75c1.332,0.905,2.705,1.894,4.119,2.966
		l5.045,10.354l-21.111,1.535l-13.743,12.615L88.932,86.866z"/>
	<path fill="#414042" d="M52.604,59.68c0,3.277,1.322,6.159,3.091,8.631c2.904,4.055,10.503,16.961,10.503,16.961
		s7.602-12.906,10.505-16.961c1.769-2.472,3.091-5.354,3.091-8.631c0-7.509-6.087-13.595-13.596-13.595
		C58.689,46.085,52.604,52.171,52.604,59.68z M58.779,58.628c0-4.046,3.322-7.326,7.418-7.326c4.097,0,7.419,3.28,7.419,7.326
		c0,4.046-3.322,7.327-7.419,7.327C62.102,65.955,58.779,62.675,58.779,58.628z"/>
	<path fill="#414042" d="M73.545,103.861l-0.521-2.004c0.87-0.488,1.721-1.094,2.558-1.795l1.431,1.42
		C75.896,102.434,74.744,103.242,73.545,103.861z"/>
	<path fill="#414042" d="M60.227,104.469c-1.129-0.203-2.268-0.436-3.383-0.692l0.656-1.924c1.064,0.241,2.146,0.464,3.218,0.654
		L60.227,104.469z"/>
	<path fill="#414042" d="M102.91,73.283l-0.173,2.062c-1.04,0.146-2.009,0.429-2.903,0.854c-0.041,0.019-0.082,0.041-0.123,0.061
		l-1.078-1.709c0.112-0.057,0.225-0.115,0.34-0.168C100.19,73.804,101.504,73.44,102.91,73.283z"/>
	<path fill="#414042" d="M80.367,98.137l-1.428-1.418c0.807-0.922,1.603-1.901,2.389-2.917l1.438,1.427
		C81.98,96.236,81.182,97.215,80.367,98.137z"/>
	<path fill="#414042" d="M94.721,77.233l1.086,1.721c-0.82,0.724-1.623,1.529-2.413,2.393L92.1,79.783
		C92.952,78.864,93.824,78.007,94.721,77.233z"/>
	<path fill="#414042" d="M111.604,74.565l-0.96,1.821c-1.104-0.376-2.158-0.661-3.166-0.854l0.169-2.041
		C108.906,73.72,110.224,74.076,111.604,74.565z"/>
	<path fill="#414042" d="M68.474,103.191l0.515,1.979c-0.465,0.035-0.955,0.052-1.469,0.052c-0.805,0-1.668-0.042-2.565-0.117
		l0.492-1.976C66.546,103.215,67.568,103.239,68.474,103.191z"/>
	<path fill="#414042" d="M119.227,78.223l-1.013,1.752c-1.095-0.644-2.158-1.223-3.189-1.734l0.946-1.794
		C117.023,76.975,118.109,77.566,119.227,78.223z"/>
</g>
</svg>
