<?xml version="1.0" encoding="utf-8"?>
<!-- Generator: Adobe Illustrator 16.0.0, SVG Export Plug-In . SVG Version: 6.00 Build 0)  -->
<!DOCTYPE svg PUBLIC "-//W3C//DTD SVG 1.1//EN" "http://www.w3.org/Graphics/SVG/1.1/DTD/svg11.dtd">
<svg version="1.1" id="Layer_1" xmlns="http://www.w3.org/2000/svg" xmlns:xlink="http://www.w3.org/1999/xlink" x="0px" y="0px"
	 width="150px" height="150px" viewBox="0 0 150 150" enable-background="new 0 0 150 150" xml:space="preserve">
<path fill="#414042" d="M50.395,56.082c0.302-1.942,1.395-5.846,5.375-8.652c3.513-2.475,12.562-2.528,19.176-2.529
	c0.019,0,0.035,0,0.053,0s0.036,0,0.052,0c6.618,0.001,15.665,0.054,19.177,2.529c3.983,2.809,5.075,6.713,5.379,8.655
	c-4.008,0.324-7.608,2.948-9.358,6.752H59.769C58.023,58.873,54.585,56.374,50.395,56.082z M66.6,35.93h0.053l2.447,5.959
	c1.08-0.03,2.188-0.049,3.308-0.058l-2.425-5.901h10.072l-2.436,5.902c1.119,0.01,2.227,0.027,3.307,0.06l2.461-5.962h0.043
	c1.717,0,3.115,1.398,3.115,3.115h3.078c0-3.416-2.777-6.194-6.193-6.194H66.6c-3.416,0-6.196,2.778-6.196,6.194h3.082
	C63.484,37.328,64.88,35.93,66.6,35.93z M84.979,112.885l1.584,5.264h4.184l-1.717-5.707
	C87.725,112.639,86.369,112.782,84.979,112.885z M59.254,118.148h4.182l1.583-5.266c-1.392-0.103-2.745-0.244-4.048-0.443
	L59.254,118.148z M98.328,59.462c0.934,8.583,1.354,19.338,1.146,28.543l-5.42,1.847l-0.285,0.543
	c-3.285,6.228-6.123,11.604-18.756,11.623c-12.658-0.016-15.499-5.396-18.786-11.627l-0.287-0.539l-5.418-1.849
	c-0.206-9.217,0.214-19.994,1.152-28.584c2.725,0.712,4.808,2.793,5.734,5.905C61.722,79.811,64.271,86.773,75,86.773
	c10.729,0,13.277-6.965,17.59-21.449C93.453,62.423,95.678,60.244,98.328,59.462z M66.797,90.385
	c-0.891-2.428-2.843-2.769-4.403-2.916c-0.91-0.086-3.165-0.162-3.938-0.188l0.798,1.514c2.062,3.907,3.61,6.814,7.227,8.409
	l0.483-0.265C68.906,95.367,67.688,92.814,66.797,90.385z M91.537,87.289c-0.92,0.031-2.879,0.1-3.711,0.18
	c-1.559,0.147-3.514,0.488-4.406,2.916c-0.891,2.432-2.109,4.982-0.166,6.555l0.393,0.216c3.525-1.608,5.062-4.495,7.1-8.356
	L91.537,87.289z M75.016,105.098C60.9,105.082,57.147,98.713,53.79,92.372l-3.163-1.077c0.247,5.994,0.792,11.053,1.67,13.971
	c2.892,5.104,17.471,4.789,22.701,4.789s19.812,0.314,22.701-4.789c0.879-2.918,1.425-7.975,1.671-13.971l-3.163,1.077
	C92.854,98.711,89.104,105.076,75.016,105.098z"/>
</svg>
