<?xml version="1.0" encoding="utf-8"?>
<!-- Generator: Adobe Illustrator 16.0.0, SVG Export Plug-In . SVG Version: 6.00 Build 0)  -->
<!DOCTYPE svg PUBLIC "-//W3C//DTD SVG 1.1//EN" "http://www.w3.org/Graphics/SVG/1.1/DTD/svg11.dtd">
<svg version="1.1" id="Layer_1" xmlns="http://www.w3.org/2000/svg" xmlns:xlink="http://www.w3.org/1999/xlink" x="0px" y="0px"
	 width="150px" height="150px" viewBox="0 0 150 150" enable-background="new 0 0 150 150" xml:space="preserve">
<path fill="#414042" d="M71.085,37.107h7.794c0.695,0.137,1.383,0.308,2.084,0.405c5.916,0.834,11.818,1.701,17.273,4.365
	c3.146,1.535,5.074,3.896,5.412,7.474c0.188,2.004,0.51,3.995,0.795,5.988c0.707,4.896,1.434,9.79,2.148,14.683v33.344h-5.177
	c-0.308,3.56,0.879,7.415-3.054,9.526h-3.029c-4.389-1.938-2.66-6.118-3.258-9.457h-34.26c0,1.307-0.078,2.515,0.016,3.713
	c0.201,2.646-0.709,4.626-3.203,5.744h-2.6c-4.5-1.836-2.969-5.976-3.449-9.563h-5.172c0-1.026,0-1.801,0-2.573
	c0-9.015-0.003-18.027,0.006-27.041c0.003-1.007-0.006-2.022,0.127-3.021c0.923-7.073,1.949-14.134,2.807-21.216
	c0.443-3.655,2.264-6.211,5.572-7.61c2.438-1.032,4.959-1.965,7.527-2.569C63.289,38.396,67.203,37.822,71.085,37.107
	 M74.751,73.887c7.349,0,14.699,0,22.05,0c3.948,0,4.604-0.731,4.062-4.571c-0.695-4.918-1.393-9.839-2.1-14.758
	c-0.477-3.269-1.354-4.035-4.666-4.037c-12.688-0.004-25.369-0.006-38.054,0c-3.469,0.003-4.253,0.67-4.771,4.167
	c-0.743,5.057-1.45,10.12-2.158,15.184c-0.444,3.18,0.293,4.005,3.58,4.01C60.044,73.889,67.398,73.885,74.751,73.887
	 M74.927,46.682v0.006c4.177,0,8.355,0.004,12.531-0.004c1.264-0.002,2.361-0.297,2.368-1.859c0.007-1.577-1.148-1.878-2.369-1.88
	c-8.212-0.022-16.422-0.016-24.629,0.006c-1.279,0.004-2.604,0.194-2.598,1.882c0.004,1.685,1.287,1.849,2.598,1.849
	C66.861,46.682,70.894,46.682,74.927,46.682 M57.621,89.121c0.043-2.322-1.844-4.279-4.193-4.344
	c-2.361-0.071-4.371,1.773-4.452,4.083c-0.094,2.427,1.851,4.444,4.295,4.476C55.587,93.363,57.58,91.432,57.621,89.121
	 M101.047,89.037c-0.014-2.372-1.883-4.244-4.255-4.26c-2.436-0.02-4.465,2.009-4.393,4.381c0.072,2.273,2.119,4.219,4.412,4.186
	C99.147,93.312,101.06,91.366,101.047,89.037"/>
</svg>
