<?xml version="1.0" encoding="utf-8"?>
<!-- Generator: Adobe Illustrator 16.0.0, SVG Export Plug-In . SVG Version: 6.00 Build 0)  -->
<!DOCTYPE svg PUBLIC "-//W3C//DTD SVG 1.1//EN" "http://www.w3.org/Graphics/SVG/1.1/DTD/svg11.dtd">
<svg version="1.1" id="Layer_1" xmlns="http://www.w3.org/2000/svg" xmlns:xlink="http://www.w3.org/1999/xlink" x="0px" y="0px"
	 width="150px" height="150px" viewBox="0 0 150 150" enable-background="new 0 0 150 150" xml:space="preserve">
<g>
	<path fill="#414042" d="M29.273,73.504l13.598,44.814l19.535-11.49l22.598,1.148l15.034-13.789l24.417-1.727L106.07,54.542
		L85.102,53.68L71.023,65.46l0,0l-3.944-0.577c-0.495,0.733-1.073,1.625-1.698,2.609l5.041,0.734l4.314,13.135
		c-0.367,0.508-0.735,1.014-1.104,1.52c-0.259,0.359-0.52,0.721-0.781,1.08l1.445,1.434c0.322-0.443,0.646-0.891,0.969-1.336
		c0.082-0.111,0.164-0.227,0.246-0.34l6.982,21.258l-20.81-1.061L44.558,113.99l-5.465-18.012c0.578,0.193,1.184,0.393,1.82,0.584
		l0.65-1.91c-1.182-0.355-2.266-0.713-3.197-1.068l-5.71-18.82l11.639-7.351c-0.571-0.899-1.104-1.72-1.566-2.408L29.273,73.504z
		 M77.598,80.865c0.455-0.611,0.912-1.221,1.375-1.816l-1.312-1.588c-0.277,0.355-0.553,0.715-0.826,1.076l-3.615-11.004
		l12.914-10.796l17.996,0.426l8.99,18.451c-0.41-0.288-0.818-0.57-1.223-0.845l-1.012,1.75c1.332,0.904,2.705,1.895,4.119,2.967
		l5.045,10.354l-21.111,1.535L85.195,103.99L77.598,80.865z"/>
	<path fill="#414042" d="M41.27,53.68c0,3.277,1.322,6.159,3.091,8.631c2.904,4.055,10.503,16.96,10.503,16.96
		s7.602-12.905,10.505-16.96c1.77-2.472,3.091-5.354,3.091-8.631c0-7.509-6.087-13.595-13.596-13.595
		C47.355,40.085,41.27,46.171,41.27,53.68z M47.445,52.628c0-4.046,3.322-7.326,7.418-7.326c4.097,0,7.419,3.28,7.419,7.326
		s-3.322,7.327-7.419,7.327C50.768,59.955,47.445,56.675,47.445,52.628z"/>
	<path fill="#414042" d="M62.211,97.861l-0.521-2.004c0.87-0.488,1.721-1.094,2.558-1.795l1.432,1.42
		C64.562,96.434,63.41,97.242,62.211,97.861z"/>
	<path fill="#414042" d="M48.893,98.469c-1.129-0.203-2.268-0.436-3.383-0.691l0.656-1.924c1.064,0.24,2.146,0.463,3.218,0.652
		L48.893,98.469z"/>
	<path fill="#414042" d="M91.576,67.283l-0.174,2.062c-1.039,0.146-2.008,0.429-2.902,0.854c-0.041,0.019-0.082,0.041-0.123,0.061
		l-1.078-1.709c0.112-0.057,0.225-0.115,0.34-0.168C88.855,67.804,90.17,67.44,91.576,67.283z"/>
	<path fill="#414042" d="M69.033,92.137l-1.428-1.418c0.807-0.922,1.603-1.9,2.389-2.918l1.438,1.428
		C70.646,90.236,69.848,91.215,69.033,92.137z"/>
	<path fill="#414042" d="M83.387,71.232l1.086,1.722c-0.82,0.724-1.623,1.528-2.412,2.394l-1.295-1.564
		C81.618,72.864,82.49,72.007,83.387,71.232z"/>
	<path fill="#414042" d="M100.27,68.565l-0.959,1.821c-1.104-0.376-2.158-0.661-3.166-0.854l0.168-2.041
		C97.572,67.72,98.891,68.076,100.27,68.565z"/>
	<path fill="#414042" d="M57.14,97.191l0.515,1.979c-0.465,0.035-0.955,0.053-1.469,0.053c-0.805,0-1.668-0.043-2.565-0.117
		l0.492-1.977C55.212,97.215,56.234,97.238,57.14,97.191z"/>
	<path fill="#414042" d="M107.893,72.223l-1.013,1.752c-1.095-0.644-2.157-1.223-3.188-1.733l0.945-1.794
		C105.689,70.975,106.775,71.566,107.893,72.223z"/>
</g>
</svg>
