<?xml version="1.0" encoding="utf-8"?>
<!-- Generator: Adobe Illustrator 16.0.0, SVG Export Plug-In . SVG Version: 6.00 Build 0)  -->
<!DOCTYPE svg PUBLIC "-//W3C//DTD SVG 1.1//EN" "http://www.w3.org/Graphics/SVG/1.1/DTD/svg11.dtd">
<svg version="1.1" id="Layer_1" xmlns="http://www.w3.org/2000/svg" xmlns:xlink="http://www.w3.org/1999/xlink" x="0px" y="0px"
	 width="150px" height="150px" viewBox="0 0 150 150" enable-background="new 0 0 150 150" xml:space="preserve">
<g>
	<path fill="#414042" d="M48.555,48.397V88.94c0,4.885,3.619,8.844,8.081,8.844h36.729c4.462,0,8.08-3.959,8.08-8.844V48.397
		c0-4.886-3.618-8.846-8.08-8.846H56.636C52.174,39.552,48.555,43.512,48.555,48.397z M83.91,44.543
		c0,1.037-0.518,1.877-1.154,1.877H67.243c-0.638,0-1.153-0.84-1.153-1.877v-1.142c0-1.036,0.518-1.875,1.153-1.875h15.513
		c0.639,0,1.154,0.839,1.154,1.875V44.543z M96.596,67.163c0,1.594-1.437,2.887-3.205,2.887H56.61c-1.771,0-3.205-1.293-3.205-2.887
		V51.601c0-1.595,1.435-2.886,3.205-2.886h36.778c1.771,0,3.205,1.292,3.205,2.886v15.562H96.596z M61.193,75.007
		c0-0.451,0.366-0.816,0.815-0.816H87.99c0.449,0,0.814,0.365,0.814,0.816s-0.365,0.814-0.814,0.814H62.01
		C61.561,75.823,61.193,75.458,61.193,75.007z M62.01,78.708h25.981c0.448,0,0.813,0.364,0.813,0.815s-0.365,0.815-0.813,0.815
		H62.01c-0.449,0-0.815-0.364-0.815-0.815S61.561,78.708,62.01,78.708z M87.3,89.251c0-2.636,2.136-4.771,4.769-4.771
		c2.635,0,4.771,2.136,4.771,4.771c0,2.634-2.136,4.77-4.771,4.77C89.436,94.021,87.3,91.885,87.3,89.251z M53.163,89.251
		c0-2.636,2.135-4.771,4.769-4.771s4.771,2.136,4.771,4.771c0,2.634-2.137,4.77-4.771,4.77S53.163,91.885,53.163,89.251z"/>
	<g>
		<polygon fill="#414042" points="90.163,110.448 83.605,96.194 92.34,96.194 99.738,110.448 		"/>
		<polygon fill="#414042" points="59.837,110.448 66.395,96.194 57.66,96.194 50.261,110.448 		"/>
	</g>
	<rect x="60.565" y="104.376" fill="#414042" width="28.868" height="2.888"/>
	<rect x="60.565" y="99.808" fill="#414042" width="28.868" height="2.886"/>
</g>
</svg>
