<?xml version="1.0" encoding="utf-8"?>
<!-- Generator: Adobe Illustrator 16.0.4, SVG Export Plug-In . SVG Version: 6.00 Build 0)  -->
<!DOCTYPE svg PUBLIC "-//W3C//DTD SVG 1.1//EN" "http://www.w3.org/Graphics/SVG/1.1/DTD/svg11.dtd">
<svg version="1.1" id="Layer_1" xmlns="http://www.w3.org/2000/svg" xmlns:xlink="http://www.w3.org/1999/xlink" x="0px" y="0px"
	 width="170px" height="170px" viewBox="0 0 170 170" enable-background="new 0 0 170 170" xml:space="preserve">
<g>
	<path fill="#414042" d="M85,4c45.215,0,82,36.785,82,82s-36.785,82-82,82S3,131.215,3,86S39.785,4,85,4 M85,1
		C38.056,1,0,39.056,0,86c0,46.945,38.056,85,85,85c46.945,0,85-38.055,85-85C170,39.056,131.945,1,85,1L85,1z"/>
</g>
<path fill="#414042" d="M81.084,48.074h7.795c0.695,0.137,1.383,0.308,2.084,0.405c5.916,0.834,11.818,1.701,17.273,4.365
	c3.147,1.535,5.074,3.895,5.412,7.474c0.189,2.004,0.51,3.995,0.796,5.988c0.707,4.896,1.433,9.79,2.149,14.683v33.344h-5.177
	c-0.306,3.559,0.879,7.415-3.052,9.527h-3.031c-4.388-1.938-2.66-6.119-3.258-9.457H67.814c0,1.306-0.078,2.514,0.016,3.712
	c0.201,2.647-0.709,4.626-3.203,5.745h-2.6c-4.5-1.837-2.969-5.975-3.449-9.564h-5.172c0-1.027,0-1.801,0-2.574
	c0-9.014-0.003-18.027,0.006-27.04c0.003-1.007-0.006-2.023,0.127-3.021c0.923-7.073,1.949-14.134,2.807-21.216
	c0.443-3.655,2.264-6.211,5.572-7.61c2.438-1.032,4.959-1.965,7.527-2.569C73.287,49.363,77.201,48.789,81.084,48.074 M84.75,84.854
	c7.35,0,14.699,0,22.051,0c3.948,0,4.603-0.732,4.062-4.572c-0.695-4.918-1.393-9.839-2.1-14.758
	c-0.475-3.269-1.354-4.035-4.666-4.037c-12.688-0.004-25.367-0.006-38.053,0c-3.469,0.003-4.253,0.67-4.771,4.167
	c-0.743,5.057-1.45,10.12-2.158,15.184c-0.444,3.179,0.293,4.005,3.58,4.009C70.043,84.856,77.396,84.852,84.75,84.854
	 M84.926,57.649v0.006c4.177,0,8.355,0.004,12.531-0.004c1.263-0.002,2.361-0.297,2.368-1.859c0.007-1.577-1.148-1.878-2.369-1.88
	c-8.212-0.022-16.423-0.016-24.63,0.006c-1.279,0.004-2.604,0.194-2.598,1.882c0.004,1.685,1.287,1.849,2.598,1.849
	C76.859,57.649,80.893,57.649,84.926,57.649 M67.619,100.088c0.043-2.323-1.844-4.279-4.193-4.344
	c-2.361-0.071-4.371,1.773-4.452,4.083c-0.094,2.427,1.851,4.444,4.295,4.476C65.586,104.33,67.578,102.399,67.619,100.088
	 M111.046,100.004c-0.014-2.372-1.883-4.244-4.255-4.26c-2.436-0.02-4.465,2.009-4.393,4.381c0.073,2.274,2.119,4.219,4.412,4.186
	C109.146,104.279,111.059,102.333,111.046,100.004"/>
</svg>
